<svg xmlns="http://www.w3.org/2000/svg" width="40" height="40" viewBox="0 0 40 40"><path d="M20,7.872a20.257,20.257,0,0,0-20,20.5A20.468,20.468,0,0,0,13.676,47.831c1,.19,1.368-.446,1.368-.988,0-.489-.02-2.1-.028-3.816-5.564,1.24-6.737-2.42-6.737-2.42a5.4,5.4,0,0,0-2.221-3c-1.814-1.274.138-1.246.138-1.246a4.213,4.213,0,0,1,3.065,2.112c1.785,3.135,4.68,2.227,5.821,1.7a4.411,4.411,0,0,1,1.27-2.743c-4.442-.517-9.112-2.276-9.112-10.133A8.052,8.052,0,0,1,9.3,21.8a7.534,7.534,0,0,1,.193-5.426s1.679-.552,5.5,2.1a18.524,18.524,0,0,1,10.013,0c3.817-2.652,5.5-2.1,5.5-2.1a7.535,7.535,0,0,1,.2,5.426,8.029,8.029,0,0,1,2.058,5.5c0,7.875-4.68,9.607-9.132,10.115a4.964,4.964,0,0,1,1.358,3.8c0,2.742-.023,4.952-.023,5.626,0,.546.36,1.184,1.374.984A20.467,20.467,0,0,0,40,28.369a20.257,20.257,0,0,0-20-20.5v.007Z" transform="translate(0 -7.865)" fill-rule="evenodd"/></svg>