<svg xmlns="http://www.w3.org/2000/svg" width="889.254" height="810.595" viewBox="0 0 889.254 810.595"><path d="M553.908,2.808c59.232,36.6,111.883,70.268,144.132,112.233,31.591,41.965,42.779,92.714,50.018,145.9,7.24,53.677,9.872,110.281-33.565,137.119-44.1,27.326-133.6,24.4-200.073,74.171-65.813,49.285-107.934,150.782-173.09,180.549S187.985,640.1,125.463,588.858C62.94,538.11,25.426,478.577,22.793,421.973S51.751,311.692,26.084,247.28C1.075,182.38-82.508,106.745-62.106,72.587S81.367,45.749,169.558,21.838c88.19-24.4,141.5-79.539,200.731-87.346S495.334-33.79,553.908,2.808Z" transform="matrix(0.995, 0.105, -0.105, 0.995, 134.189, 72.964)"/></svg>