<svg xmlns="http://www.w3.org/2000/svg" width="40" height="40" viewBox="0 0 40 40"><path d="M19.94,14.085a6.191,6.191,0,1,1-6.191,6.191A6.19,6.19,0,0,1,19.94,14.085ZM15.321,9.034h9.358a6.363,6.363,0,0,1,6.383,6.3v9.334a6.355,6.355,0,0,1-6.383,6.3H15.321a6.355,6.355,0,0,1-6.383-6.3V15.333A6.362,6.362,0,0,1,15.321,9.034Zm10.606,4.187a1.008,1.008,0,1,1-1.008,1.008A1.006,1.006,0,0,1,25.927,13.221Zm-9.838-2.4h7.822a5.338,5.338,0,0,1,5.339,5.315v7.87a5.338,5.338,0,0,1-5.339,5.315H16.089a5.338,5.338,0,0,1-5.339-5.315v-7.87A5.338,5.338,0,0,1,16.089,10.822ZM20,0A19.99,19.99,0,1,1,5.855,5.855,19.989,19.989,0,0,1,20,0ZM33.113,6.875a18.537,18.537,0,1,0,5.435,13.113A18.479,18.479,0,0,0,33.113,6.875ZM19.94,16.161a4.091,4.091,0,1,1-4.091,4.091A4.1,4.1,0,0,1,19.94,16.161Z" fill-rule="evenodd"/></svg>