<svg xmlns="http://www.w3.org/2000/svg" width="40" height="40" viewBox="0 0 40 40"><path d="M17.576,16.245H21.44v1.98h.06a4.28,4.28,0,0,1,3.815-1.98c4.079,0,4.835,2.543,4.835,5.855V28.83H26.119V22.855c0-1.428-.024-3.251-2.1-3.251-2.1,0-2.424,1.548-2.424,3.155V28.83H17.564V16.245ZM20,0A19.99,19.99,0,1,1,5.855,5.855,19.989,19.989,0,0,1,20,0ZM33.113,6.875a18.537,18.537,0,1,0,5.435,13.113A18.479,18.479,0,0,0,33.113,6.875ZM14.781,12.753a2.1,2.1,0,1,1-2.1-2.1A2.094,2.094,0,0,1,14.781,12.753Zm-4.2,3.491h4.2V28.83h-4.2Z" fill-rule="evenodd"/></svg>