<svg viewBox="0 0 86 71" xmlns="http://www.w3.org/2000/svg">
<path d="M42.5898 3.32452L49.1876 4.40155L81.8367 68.4466H64.2846L61.1778 62.3539L60.4684 60.9623H25.5316L24.8214 62.3539L21.7154 68.4466H4.16332L32.7423 12.384L43.4813 14.1366L48.4071 14.9407L46.1688 10.4722L42.5898 3.32452ZM31.1343 49.9661H54.867L52.973 46.2512L45.2705 31.1435L43.0011 26.6922L40.7315 31.1435L33.0272 46.2512L31.1333 49.9661H31.1343ZM38.0731 0L43.891 11.6159L31.318 9.564L0 71H23.2753L27.0912 63.5163H58.9085L62.725 71H86L50.8703 2.08944L38.0731 0ZM35.2976 47.4127L43.0001 32.3051L50.7024 47.4127H35.2976Z" />
</svg>