<svg xmlns="http://www.w3.org/2000/svg" width="758.174" height="724.531" viewBox="0 0 758.174 724.531">
  <path id="blob_8_" data-name="blob (8)" d="M382.256,84.453c39.8,26.594,78.134,51.031,101.867,85.891,23.367,34.859,31.765,80.141,43.814,131.891s27.383,110.328,5.842,148.781c-21.542,38.094-79.595,56.063-131.441,84.813-51.481,28.75-96.39,68.641-140.569,67.2-43.814-1.437-86.9-44.2-124.139-81.219s-68.276-68.281-94.2-105.3C17.508,379.859-2.938,337.453.348,297.2s30.67-78.344,48.195-129.735C65.7,116.078,73.005,51.75,106.961,21.921c33.59-29.828,93.834-25.516,144.22-8.984C301.931,29.468,342.824,57.859,382.256,84.453Z" transform="translate(195.16 724.531) rotate(-111)" fill="#68a6c2"/>
</svg>
